<?xml version="1.0"?>
<svg xmlns="http://www.w3.org/2000/svg" xmlns:xlink="http://www.w3.org/1999/xlink" xmlns:svgjs="http://svgjs.com/svgjs" version="1.1" width="512" height="512" x="0" y="0" viewBox="0 0 83.818 83.818" style="enable-background:new 0 0 512 512" xml:space="preserve"><g><script/>
<g xmlns="http://www.w3.org/2000/svg">
	<g>
		<polygon points="24.448,59.586 20.9,59.586 20.9,63.689 62.05,63.689 62.05,59.586 58.558,59.586   " fill="#1c583b" data-original="#000000" style=""/>
		<path d="M41.909,83.818c23.146,0,41.908-18.764,41.908-41.908C83.817,18.764,65.056,0,41.909,0C18.764,0,0.001,18.764,0.001,41.91    C0.001,65.055,18.765,83.818,41.909,83.818z M25.072,31.957c0.41-7.195,6.349-12.876,13.59-12.876    c5.995,0,11.205,3.873,12.976,9.527c0.414-0.047,0.828-0.07,1.238-0.07c6.161,0,11.174,5.013,11.174,11.175    c0,3.533-1.678,6.822-4.49,8.931v8.941h3.49c0.553,0,1,0.447,1,1v6.104c0,0.554-0.447,1-1,1H19.9c-0.553,0-1-0.446-1-1v-6.104    c0-0.553,0.447-1,1-1h3.548v-5.642c-3.767-1.718-6.253-5.527-6.253-9.696C17.195,37.406,20.463,33.2,25.072,31.957z" fill="#1c583b" data-original="#000000" style=""/>
		<path d="M23.448,49.696v-9.982c0-0.553,0.447-1,1-1h34.109c0.554,0,1,0.447,1,1V46c1.584-1.686,2.49-3.924,2.49-6.286    c0-5.059-4.115-9.175-9.173-9.175c-0.586,0-1.183,0.059-1.772,0.175c-0.524,0.106-1.039-0.226-1.164-0.747    c-1.264-5.231-5.899-8.885-11.276-8.885c-6.404,0-11.615,5.21-11.615,11.613c0,0.48-0.339,0.956-0.811,1.046    c-4.08,0.773-7.041,4.352-7.041,8.508C19.195,45.32,20.856,48.154,23.448,49.696z" fill="#1c583b" data-original="#000000" style=""/>
		<polygon points="57.558,40.713 25.448,40.713 25.448,51.283 25.448,57.586 57.558,57.586 57.558,48.155   " fill="#1c583b" data-original="#000000" style=""/>
	</g>
</g>
<g xmlns="http://www.w3.org/2000/svg">
</g>
<g xmlns="http://www.w3.org/2000/svg">
</g>
<g xmlns="http://www.w3.org/2000/svg">
</g>
<g xmlns="http://www.w3.org/2000/svg">
</g>
<g xmlns="http://www.w3.org/2000/svg">
</g>
<g xmlns="http://www.w3.org/2000/svg">
</g>
<g xmlns="http://www.w3.org/2000/svg">
</g>
<g xmlns="http://www.w3.org/2000/svg">
</g>
<g xmlns="http://www.w3.org/2000/svg">
</g>
<g xmlns="http://www.w3.org/2000/svg">
</g>
<g xmlns="http://www.w3.org/2000/svg">
</g>
<g xmlns="http://www.w3.org/2000/svg">
</g>
<g xmlns="http://www.w3.org/2000/svg">
</g>
<g xmlns="http://www.w3.org/2000/svg">
</g>
<g xmlns="http://www.w3.org/2000/svg">
</g>
</g></svg>
