<?xml version="1.0" encoding="UTF-8"?>
<svg width="320px" height="50px" viewBox="0 0 320 50" version="1.1" xmlns="http://www.w3.org/2000/svg" xmlns:xlink="http://www.w3.org/1999/xlink">
    <!-- Generator: Sketch 41.2 (35397) - http://www.bohemiancoding.com/sketch -->
    <title>logo</title>
    <desc>Created with Sketch.</desc>
    <defs></defs>
    <g id="Page-1" stroke="none" stroke-width="1" fill="none" fill-rule="evenodd">
        <g id="logo">
            <g id="Group" transform="translate(0.000000, 30.600000)" fill="#6D6E6A">
                <path d="M5.22122449,6.6283 C3.37959184,6.1098 1.78612245,5.6678 1.78612245,3.8794 C1.78612245,2.567 2.94857143,1.5776 4.49142857,1.5776 C6.27102041,1.5776 7.88897959,2.7897 7.88897959,4.1276 L7.88897959,4.5628 L9.06285714,4.5628 L9.06285714,0.4964 L7.88897959,0.4964 L7.88897959,1.6932 C7.09061224,0.799 5.85959184,0.2703 4.5322449,0.2703 C2.22040816,0.2703 0.478367347,1.8224 0.478367347,3.8794 C0.478367347,6.7201 2.78040816,7.3848 4.81632653,7.9679 C6.61877551,8.4898 8.32816327,8.9811 8.32816327,10.8562 C8.32816327,12.4865 7.04816327,13.6714 5.28326531,13.6714 C3.30285714,13.6714 1.62612245,12.1278 1.62612245,10.2986 L1.62612245,9.6781 L0.435918367,9.6781 L0.435918367,14.7713 L1.62612245,14.7713 L1.62612245,13.2107 C2.41632653,14.297 3.81387755,14.9753 5.30285714,14.9753 C7.81877551,14.9753 9.71428571,13.2311 9.71428571,10.9157 C9.71428571,7.8829 7.32734694,7.2148 5.22122449,6.6283 Z" id="Shape"></path>
                <path d="M14.075102,1.5572 L12.7657143,2.6333 L12.7657143,4.7379 L11.1020408,4.7379 L11.1020408,5.9636 L12.7657143,5.9636 L12.7657143,13.0594 C12.7657143,14.3276 13.3861224,14.9974 14.5665306,14.9974 C14.96,14.9974 15.4204082,14.9226 15.9314286,14.7696 L16.0342857,14.7356 L16.0342857,13.5099 L15.8595918,13.5524 C15.3942857,13.6714 15.0416327,13.7292 14.7820408,13.7292 C14.1779592,13.7292 14.0767347,13.4504 14.0767347,12.6072 L14.0767347,5.9636 L16.0342857,5.9636 L16.0342857,4.7379 L14.0767347,4.7379 L14.0767347,1.5572 L14.075102,1.5572 Z" id="Shape"></path>
                <path d="M21.5102041,6.6997 L21.5102041,4.7379 L18.4195918,4.7379 L18.4195918,5.9636 L20.1991837,5.9636 L20.1991837,13.5507 L18.4195918,13.5507 L18.4195918,14.773 L23.4269388,14.773 L23.4269388,13.5507 L21.5085714,13.5507 L21.5085714,9.6628 C21.5085714,8.3487 21.7404082,7.5038 22.2563265,6.9241 C22.8653061,6.2492 23.9232653,5.9211 25.4906122,5.9211 L25.8383673,5.9279 L25.8383673,4.607 L25.7061224,4.5968 C23.7926531,4.4625 22.2840816,5.236 21.5102041,6.6997 Z" id="Shape"></path>
                <path d="M34.6514286,7.3814 C34.6514286,5.5046 33.3795918,4.4727 31.0693878,4.4727 C29.1183673,4.4727 27.962449,5.1629 27.2065306,6.7762 L27.1314286,6.9394 L28.1828571,7.2216 L28.2318367,7.1128 C28.7232653,6.035 29.5983673,5.5284 30.9910204,5.5284 C32.5502041,5.5284 33.3387755,6.1642 33.3387755,7.4171 L33.3387755,9.4418 C32.3869388,8.9607 31.5232653,8.7346 30.635102,8.7346 C28.5485714,8.7346 27.0318367,10.0555 27.0318367,11.8864 C27.0318367,13.583 28.3477551,14.9175 30.0228571,14.9175 C31.115102,14.9175 32.2302041,14.45 33.3387755,13.5354 L33.3387755,14.7713 L36.1926531,14.7713 L36.1926531,13.549 L34.6497959,13.549 L34.6497959,7.3814 L34.6514286,7.3814 Z M30.2808163,13.7955 C29.1722449,13.7955 28.3657143,13.0186 28.3657143,11.9493 C28.3657143,10.6811 29.3485714,9.8277 30.8146939,9.8277 C31.6685714,9.8277 32.3395918,10.0402 33.3404082,10.6318 L33.3404082,12.2638 C32.5942857,13.1546 31.3159184,13.7955 30.2808163,13.7955 Z" id="Shape"></path>
                <path d="M40.3232653,1.5572 L39.0122449,2.6333 L39.0122449,4.7379 L37.3502041,4.7379 L37.3502041,5.9636 L39.0122449,5.9636 L39.0122449,13.0594 C39.0122449,14.3276 39.6326531,14.9974 40.8114286,14.9974 C41.2065306,14.9974 41.6669388,14.9226 42.1763265,14.7696 L42.277551,14.7356 L42.277551,13.5099 L42.1044898,13.5524 C41.6391837,13.6714 41.284898,13.7292 41.0253061,13.7292 C40.4228571,13.7292 40.3216327,13.4504 40.3216327,12.6072 L40.3216327,5.9636 L42.277551,5.9636 L42.277551,4.7379 L40.3216327,4.7379 L40.3216327,1.5572 L40.3232653,1.5572 Z" id="Shape"></path>
                <path d="M52.6889796,11.8473 C51.8008163,13.1716 50.5436735,13.8992 49.1493878,13.8992 C47.1069388,13.8992 45.4334694,12.2281 45.36,10.1371 L53.7616327,10.1371 L53.7583673,9.9875 C53.6995918,6.6912 51.7665306,4.4727 48.9518367,4.4727 C46.1093878,4.4727 44.0473469,6.698 44.0473469,9.7648 C44.0473469,12.8316 46.1436735,15.062 49.0318367,15.062 C51.0057143,15.062 52.8081633,14.0403 53.7404082,12.3947 L53.8204082,12.2536 L52.7591837,11.7436 L52.6889796,11.8473 Z M48.8718367,5.6746 C50.7281633,5.6746 51.9983673,6.8527 52.3804082,8.9182 L45.4040816,8.9182 C45.7893878,6.8833 47.0742857,5.6746 48.8718367,5.6746 Z" id="Shape"></path>
                <path d="M64.2677551,6.5365 C63.4138776,5.2802 62.1632653,4.5951 60.7134694,4.5951 C58.0261224,4.5951 55.924898,6.902 55.924898,9.8481 C55.924898,12.733 57.9657143,14.9175 60.6742857,14.9175 C62.1763265,14.9175 63.4906122,14.2239 64.2677551,13.0407 L64.2677551,14.9753 C64.2677551,17.9707 61.4236735,18.1203 60.8522449,18.1203 C59.68,18.1203 58.6791837,17.7582 57.8791837,17.0459 L57.7812245,16.9558 L56.9159184,17.8534 L57.0187755,17.9605 C57.9102041,18.8887 59.2016327,19.3834 60.7542857,19.3834 C62.5469388,19.3834 65.5820408,18.4348 65.5820408,14.8716 L65.5820408,5.9636 L67.3208163,5.9636 L67.3208163,4.7379 L64.2693878,4.7379 L64.2693878,6.5365 L64.2677551,6.5365 Z M60.7330612,13.7122 C58.6857143,13.7122 57.2571429,12.1091 57.2571429,9.8039 C57.2571429,7.5327 58.7510204,5.8157 60.7330612,5.8157 C62.6938776,5.8157 64.2889796,7.5786 64.2889796,9.7444 C64.2873469,12.0088 62.7608163,13.7122 60.7330612,13.7122 Z" id="Shape"></path>
                <polygon id="Shape" points="75.5167347 5.9636 76.9355102 5.9636 74.5061224 12.6565 71.8742857 5.9636 73.3289796 5.9636 73.3289796 4.7379 68.9714286 4.7379 68.9714286 5.9636 70.5616327 5.9636 73.8644898 14.3599 72.6122449 17.9146 70.5926531 17.9146 70.5926531 19.1352 73.4416327 19.1352 78.2269388 5.9636 79.6946939 5.9636 79.6946939 4.7379 75.5167347 4.7379"></polygon>
                <path d="M95.8726531,7.5769 C95.6,9.0644 95.204898,10.1269 94.5273469,11.1928 L91.4677551,6.6844 C93.722449,5.7613 94.7297959,4.6852 94.7297959,3.2198 C94.7297959,1.5674 93.3404082,0.272 91.5657143,0.272 C89.7322449,0.272 88.24,1.632 88.24,3.3031 C88.24,4.2551 88.8326531,5.117 89.5967347,6.1778 C87.2881633,7.0856 86.164898,8.4966 86.164898,10.4822 C86.164898,13.0458 88.1044898,14.977 90.677551,14.977 C92.0865306,14.977 93.3420408,14.4177 94.5110204,13.2617 L95.5673469,14.773 L98.4277551,14.773 L98.4277551,13.5507 L96.2416327,13.5507 L95.3208163,12.2383 C96.0538776,11.2438 96.4342857,10.3802 96.8914286,8.6802 L98.4261224,8.6802 L98.4261224,7.4579 L95.8955102,7.4579 L95.8726531,7.5769 Z M91.5265306,1.4705 C92.6530612,1.4705 93.5395918,2.2304 93.5395918,3.1994 C93.5395918,4.2075 92.6906122,4.9776 90.7869388,5.6814 C90.7004082,5.5522 90.6155102,5.4298 90.5338776,5.3091 C89.9183673,4.42 89.5118367,3.8301 89.5118367,3.1994 C89.5118367,2.1981 90.3591837,1.4705 91.5265306,1.4705 Z M90.3069388,7.1825 L93.7746939,12.2247 C92.8277551,13.2396 91.9314286,13.6748 90.795102,13.6748 C88.5583673,13.6748 87.5559184,11.7164 87.5559184,10.3241 C87.5542857,8.9454 88.4767347,7.8897 90.3069388,7.1825 Z" id="Shape"></path>
                <path d="M115.332245,11.2132 C115.216327,11.5158 115.118367,11.8082 115.035102,12.1057 C114.914286,11.7045 114.778776,11.3152 114.666122,11.0466 L110.48,0.4964 L106.801633,0.4964 L106.801633,1.7204 L108.542041,1.7204 L108.542041,13.5507 L106.801633,13.5507 L106.801633,14.773 L111.356735,14.773 L111.356735,13.5507 L109.753469,13.5507 L109.753469,1.9397 L114.700408,14.6829 L114.736327,14.773 L115.14449,14.773 L120.187755,1.9329 L120.187755,13.5507 L118.486531,13.5507 L118.486531,14.773 L123.239184,14.773 L123.239184,13.5507 L121.577143,13.5507 L121.577143,1.7204 L123.239184,1.7204 L123.239184,0.4964 L119.542857,0.4964 L115.332245,11.2132 Z" id="Shape"></path>
                <path d="M132.653061,7.3814 C132.653061,5.5046 131.381224,4.4727 129.069388,4.4727 C127.118367,4.4727 125.962449,5.1629 125.206531,6.7762 L125.129796,6.9394 L126.182857,7.2216 L126.233469,7.1128 C126.721633,6.035 127.6,5.5284 128.99102,5.5284 C130.550204,5.5284 131.340408,6.1642 131.340408,7.4171 L131.340408,9.4418 C130.386939,8.9607 129.524898,8.7346 128.636735,8.7346 C126.546939,8.7346 125.033469,10.0555 125.033469,11.8864 C125.033469,13.583 126.346122,14.9175 128.021224,14.9175 C129.115102,14.9175 130.230204,14.45 131.340408,13.5354 L131.340408,14.7713 L134.194286,14.7713 L134.194286,13.549 L132.651429,13.549 L132.651429,7.3814 L132.653061,7.3814 Z M128.280816,13.7955 C127.170612,13.7955 126.365714,13.0186 126.365714,11.9493 C126.365714,10.6811 127.351837,9.8277 128.814694,9.8277 C129.668571,9.8277 130.341224,10.0402 131.342041,10.6318 L131.342041,12.2638 C130.592653,13.1546 129.312653,13.7955 128.280816,13.7955 Z" id="Shape"></path>
                <path d="M139.14449,6.6997 L139.14449,4.7379 L136.050612,4.7379 L136.050612,5.9636 L137.833469,5.9636 L137.833469,13.5507 L136.050612,13.5507 L136.050612,14.773 L141.061224,14.773 L141.061224,13.5507 L139.14449,13.5507 L139.14449,9.6628 C139.14449,8.3487 139.374694,7.5038 139.892245,6.9241 C140.499592,6.2492 141.559184,5.9211 143.126531,5.9211 L143.475918,5.9279 L143.475918,4.607 L143.342041,4.5968 C141.423673,4.4625 139.916735,5.236 139.14449,6.6997 Z" id="Shape"></path>
                <polygon id="Shape" points="148.679184 9.4656 153.422041 5.9636 154.726531 5.9636 154.726531 4.7379 150.546939 4.7379 150.546939 5.9636 151.720816 5.9636 147.330612 9.1732 147.330612 0.4964 144.297143 0.4964 144.297143 1.7204 146.019592 1.7204 146.019592 13.5507 144.297143 13.5507 144.297143 14.7713 149.051429 14.7713 149.051429 13.5507 147.330612 13.5507 147.330612 9.9246 152.672653 14.7713 154.899592 14.7713 154.899592 13.5507 153.170612 13.5507"></polygon>
                <path d="M164.713469,11.8473 C163.826939,13.1716 162.569796,13.8992 161.172245,13.8992 C159.128163,13.8992 157.456327,12.2281 157.382857,10.1371 L165.78449,10.1371 L165.781224,9.9875 C165.720816,6.6912 163.789388,4.4727 160.976327,4.4727 C158.133878,4.4727 156.068571,6.698 156.068571,9.7648 C156.068571,12.8316 158.166531,15.062 161.056327,15.062 C163.028571,15.062 164.832653,14.0403 165.763265,12.3947 L165.843265,12.2536 L164.786939,11.7436 L164.713469,11.8473 Z M160.894694,5.6746 C162.749388,5.6746 164.021224,6.8527 164.403265,8.9182 L157.426939,8.9182 C157.810612,6.8833 159.098776,5.6746 160.894694,5.6746 Z" id="Shape"></path>
                <path d="M169.942857,1.5572 L168.631837,2.6333 L168.631837,4.7379 L166.968163,4.7379 L166.968163,5.9636 L168.631837,5.9636 L168.631837,13.0594 C168.631837,14.3276 169.253878,14.9974 170.434286,14.9974 C170.826122,14.9974 171.286531,14.9226 171.795918,14.7696 L171.898776,14.7356 L171.898776,13.5099 L171.727347,13.5524 C171.258776,13.6714 170.90449,13.7292 170.644898,13.7292 C170.045714,13.7292 169.942857,13.4504 169.942857,12.6072 L169.942857,5.9636 L171.898776,5.9636 L171.898776,4.7379 L169.942857,4.7379 L169.942857,1.5572 Z" id="Shape"></path>
                <g transform="translate(174.061224, 0.000000)" id="Shape">
                    <polygon points="3.12081633 4.7379 0.170612245 4.7379 0.170612245 5.9636 1.80979592 5.9636 1.80979592 13.5507 0.170612245 13.5507 0.170612245 14.7713 4.72244898 14.7713 4.72244898 13.5507 3.12081633 13.5507"></polygon>
                    <path d="M2.16734694,2.2338 C2.68326531,2.2338 3.12081633,1.7782 3.12081633,1.241 C3.12081633,0.7174 2.68326531,0.2703 2.16734694,0.2703 C1.65632653,0.2703 1.23836735,0.7089 1.23836735,1.241 C1.23836735,1.7799 1.66285714,2.2338 2.16734694,2.2338 Z"></path>
                </g>
                <path d="M189.444898,7.2743 C189.444898,5.6746 188.372245,4.5951 186.772245,4.5951 C185.756735,4.5951 184.563265,5.1204 183.394286,6.0809 L183.394286,4.7379 L180.365714,4.7379 L180.365714,5.9636 L182.084898,5.9636 L182.084898,13.5507 L180.365714,13.5507 L180.365714,14.773 L184.915918,14.773 L184.915918,13.5507 L183.394286,13.5507 L183.394286,7.5242 C184.440816,6.5127 185.738776,5.8599 186.715102,5.8599 C187.640816,5.8599 188.132245,6.4498 188.132245,7.5633 L188.132245,13.549 L186.468571,13.549 L186.468571,14.7713 L190.943673,14.7713 L190.943673,13.549 L189.443265,13.549 L189.443265,7.2743 L189.444898,7.2743 Z" id="Shape"></path>
                <path d="M200.197551,6.5365 C199.346939,5.2802 198.096327,4.5951 196.643265,4.5951 C193.957551,4.5951 191.854694,6.902 191.854694,9.8481 C191.854694,12.733 193.893878,14.9175 196.604082,14.9175 C198.107755,14.9175 199.422041,14.2239 200.195918,13.039 L200.195918,14.977 C200.195918,17.9724 197.351837,18.122 196.782041,18.122 C195.609796,18.122 194.60898,17.7599 193.807347,17.0476 L193.707755,16.9575 L192.842449,17.8551 L192.945306,17.9622 C193.836735,18.8904 195.129796,19.3851 196.684082,19.3851 C198.475102,19.3851 201.506939,18.4365 201.506939,14.8733 L201.506939,5.9653 L203.247347,5.9653 L203.247347,4.7396 L200.195918,4.7396 L200.195918,6.5365 L200.197551,6.5365 Z M196.662857,13.7122 C194.617143,13.7122 193.185306,12.1091 193.185306,9.8039 C193.185306,7.5327 194.677551,5.8157 196.662857,5.8157 C198.622041,5.8157 200.220408,7.5786 200.220408,9.7444 C200.220408,12.0088 198.68898,13.7122 196.662857,13.7122 Z" id="Shape"></path>
                <path d="M223.103673,9.4656 C222.117551,12.2961 220.413061,13.6731 217.879184,13.6731 C214.656327,13.6731 212.403265,11.169 212.403265,7.5871 C212.403265,4.0443 214.620408,1.5776 217.797551,1.5776 C219.885714,1.5776 222.204082,2.7999 222.58449,5.1374 L222.604082,5.2598 L223.794286,5.2598 L223.794286,0.4964 L222.600816,0.4964 L222.600816,2.5007 C221.456327,1.1016 219.660408,0.2703 217.719184,0.2703 C214.491429,0.2703 211.013878,2.5857 211.013878,7.667 C211.013878,12.0394 213.756735,14.977 217.841633,14.977 C221.036735,14.977 223.314286,13.2362 224.241633,10.0776 L224.274286,9.962 L223.164082,9.3058 L223.103673,9.4656 Z" id="Shape"></path>
                <path d="M230.922449,4.4727 C228.192653,4.4727 226.133878,6.7473 226.133878,9.7648 C226.133878,12.7823 228.192653,15.062 230.922449,15.062 C233.665306,15.062 235.732245,12.7823 235.732245,9.7648 C235.732245,6.7473 233.665306,4.4727 230.922449,4.4727 Z M230.922449,13.7955 C228.917551,13.7955 227.466122,12.1023 227.466122,9.7648 C227.466122,7.4307 228.919184,5.7341 230.922449,5.7341 C232.938776,5.7341 234.4,7.4307 234.4,9.7648 C234.4,12.1023 232.940408,13.7955 230.922449,13.7955 Z" id="Shape"></path>
                <path d="M246.088163,7.2743 C246.088163,5.6746 245.01551,4.5951 243.412245,4.5951 C242.398367,4.5951 241.211429,5.1204 240.035918,6.0809 L240.035918,4.7379 L237.007347,4.7379 L237.007347,5.9636 L238.729796,5.9636 L238.729796,13.5507 L237.007347,13.5507 L237.007347,14.773 L241.560816,14.773 L241.560816,13.5507 L240.035918,13.5507 L240.035918,7.5242 C241.085714,6.5127 242.380408,5.8599 243.358367,5.8599 C244.285714,5.8599 244.778776,6.4498 244.778776,7.5633 L244.778776,13.549 L243.111837,13.549 L243.111837,14.7713 L247.590204,14.7713 L247.590204,13.549 L246.086531,13.549 L246.086531,7.2743 L246.088163,7.2743 Z" id="Shape"></path>
                <path d="M253.786122,8.9981 C252.475102,8.7397 251.348571,8.5136 251.348571,7.4171 C251.348571,6.8102 251.746939,5.7766 253.244082,5.7766 C254.617143,5.7766 255.632653,6.7456 255.673469,8.0801 L255.676735,8.2263 L256.827755,8.2263 L256.827755,4.7362 L255.673469,4.7362 L255.673469,5.6559 C255.056327,4.9521 254.231837,4.5934 253.201633,4.5934 C251.453061,4.5934 250.133878,5.8021 250.133878,7.3984 C250.133878,9.5727 251.928163,9.9348 253.510204,10.2544 C254.873469,10.5264 256.045714,10.7695 256.045714,12.0105 C256.045714,13.0594 255.030204,13.7938 253.577143,13.7938 C251.923265,13.7938 250.813061,12.7704 250.813061,11.2438 L250.813061,11.0976 L249.622857,11.0976 L249.622857,14.7696 L250.813061,14.7696 L250.813061,13.7904 C251.430204,14.5469 252.333061,14.9158 253.559184,14.9158 C255.807347,14.9158 257.262041,13.7411 257.262041,11.9272 C257.262041,9.6917 255.412245,9.3245 253.786122,8.9981 Z" id="Shape"></path>
                <path d="M267.565714,4.7379 L264.612245,4.7379 L264.612245,5.9636 L266.256327,5.9636 L266.256327,11.9731 C265.257143,13.005 263.980408,13.6527 262.919184,13.6527 C261.771429,13.6527 261.531429,12.8027 261.531429,12.0921 L261.531429,4.7379 L258.581224,4.7379 L258.581224,5.9636 L260.220408,5.9636 L260.220408,12.3624 C260.220408,13.9128 261.2,14.9192 262.716735,14.9192 C263.960816,14.9192 265.149388,14.4517 266.254694,13.5371 L266.254694,14.773 L269.162449,14.773 L269.162449,13.5507 L267.564082,13.5507 L267.564082,4.7379 L267.565714,4.7379 Z" id="Shape"></path>
                <polygon id="Shape" points="273.769796 0.4964 270.757551 0.4964 270.757551 1.7204 272.458776 1.7204 272.458776 13.5507 270.777143 13.5507 270.777143 14.7713 275.449796 14.7713 275.449796 13.5507 273.769796 13.5507"></polygon>
                <path d="M279.314286,1.5572 L278.003265,2.6333 L278.003265,4.7379 L276.341224,4.7379 L276.341224,5.9636 L278.003265,5.9636 L278.003265,13.0594 C278.003265,14.3276 278.628571,14.9974 279.802449,14.9974 C280.197551,14.9974 280.656327,14.9226 281.170612,14.7696 L281.273469,14.7356 L281.273469,13.5099 L281.098776,13.5524 C280.630204,13.6714 280.279184,13.7292 280.017959,13.7292 C279.418776,13.7292 279.315918,13.4504 279.315918,12.6072 L279.315918,5.9636 L281.273469,5.9636 L281.273469,4.7379 L279.315918,4.7379 L279.315918,1.5572 L279.314286,1.5572 Z" id="Shape"></path>
                <path d="M290.791837,7.3814 C290.791837,5.5046 289.516735,4.4727 287.211429,4.4727 C285.258776,4.4727 284.10449,5.1629 283.348571,6.7762 L283.271837,6.9394 L284.323265,7.2216 L284.370612,7.1128 C284.863673,6.035 285.740408,5.5284 287.131429,5.5284 C288.68898,5.5284 289.480816,6.1642 289.480816,7.4171 L289.480816,9.4418 C288.52898,8.9607 287.663673,8.7346 286.773878,8.7346 C284.692245,8.7346 283.172245,10.0555 283.172245,11.8864 C283.172245,13.583 284.484898,14.9175 286.16,14.9175 C287.25551,14.9175 288.370612,14.45 289.480816,13.5354 L289.480816,14.7713 L292.331429,14.7713 L292.331429,13.549 L290.791837,13.549 L290.791837,7.3814 Z M286.422857,13.7955 C285.309388,13.7955 284.50449,13.0186 284.50449,11.9493 C284.50449,10.6811 285.48898,9.8277 286.953469,9.8277 C287.810612,9.8277 288.476735,10.0402 289.482449,10.6318 L289.482449,12.2638 C288.734694,13.1546 287.456327,13.7955 286.422857,13.7955 Z" id="Shape"></path>
                <path d="M303.079184,7.2743 C303.079184,5.6746 302.008163,4.5951 300.406531,4.5951 C299.392653,4.5951 298.202449,5.1204 297.028571,6.0809 L297.028571,4.7379 L294.001633,4.7379 L294.001633,5.9636 L295.722449,5.9636 L295.722449,13.5507 L294.001633,13.5507 L294.001633,14.773 L298.553469,14.773 L298.553469,13.5507 L297.026939,13.5507 L297.026939,7.5242 C298.078367,6.5127 299.374694,5.8599 300.347755,5.8599 C301.275102,5.8599 301.766531,6.4498 301.766531,7.5633 L301.766531,13.549 L300.10449,13.549 L300.10449,14.7713 L304.581224,14.7713 L304.581224,13.549 L303.075918,13.549 L303.075918,7.2743 L303.079184,7.2743 Z" id="Shape"></path>
                <path d="M308.176327,1.5572 L306.863673,2.6333 L306.863673,4.7379 L305.2,4.7379 L305.2,5.9636 L306.863673,5.9636 L306.863673,13.0594 C306.863673,14.3276 307.485714,14.9974 308.66449,14.9974 C309.062857,14.9974 309.516735,14.9226 310.027755,14.7696 L310.130612,14.7356 L310.130612,13.5099 L309.959184,13.5524 C309.493878,13.6714 309.139592,13.7292 308.88,13.7292 C308.277551,13.7292 308.177959,13.4504 308.177959,12.6072 L308.177959,5.9636 L310.130612,5.9636 L310.130612,4.7379 L308.177959,4.7379 L308.177959,1.5572 L308.176327,1.5572 Z" id="Shape"></path>
                <path d="M316.202449,8.9981 C314.897959,8.7397 313.769796,8.5136 313.769796,7.4171 C313.769796,6.8102 314.168163,5.7766 315.665306,5.7766 C317.035102,5.7766 318.058776,6.7456 318.096327,8.0801 L318.102857,8.2263 L319.244082,8.2263 L319.244082,4.7362 L318.096327,4.7362 L318.096327,5.6559 C317.477551,4.9521 316.651429,4.5934 315.622857,4.5934 C313.874286,4.5934 312.555102,5.8021 312.555102,7.3984 C312.555102,9.5727 314.349388,9.9348 315.929796,10.2544 C317.291429,10.5264 318.465306,10.7695 318.465306,12.0105 C318.465306,13.0594 317.454694,13.7938 315.996735,13.7938 C314.34449,13.7938 313.232653,12.7704 313.232653,11.2438 L313.232653,11.0976 L312.040816,11.0976 L312.040816,14.7696 L313.232653,14.7696 L313.232653,13.7904 C313.851429,14.5469 314.754286,14.9158 315.978776,14.9158 C318.226939,14.9158 319.681633,13.7411 319.681633,11.9272 C319.681633,9.6917 317.835102,9.3245 316.202449,8.9981 Z" id="Shape"></path>
            </g>
            <rect id="Rectangle-path" fill="#6D6E6A" opacity="0.7" x="0.460408163" y="23.426" width="319.211429" height="0.7599"></rect>
            <g id="Group" fill="#95374B">
                <polygon id="Shape" points="10.7771429 14.7594 10.7771429 12.3386 12.875102 12.3386 12.875102 2.8356 10.7771429 2.8356 10.7771429 0.4148 18.5632653 0.4148 18.5632653 2.8356 16.4669388 2.8356 16.4669388 12.3386 18.5632653 12.3386 18.5632653 14.7594 10.7771429 14.7594"></polygon>
                <polygon id="Shape" points="20.4342857 14.7594 20.4342857 12.3386 22.2138776 12.3386 22.2138776 2.8356 20.4342857 2.8356 20.4342857 0.4148 27.3404082 0.4148 30.3640816 8.8128 33.3926531 0.4148 40.4489796 0.4148 40.4489796 2.8356 38.6693878 2.8356 38.6693878 12.3386 40.4489796 12.3386 40.4489796 14.7594 33.5085714 14.7594 33.5085714 12.3386 35.1804082 12.3386 35.1804082 2.8356 34.8522449 2.8356 30.5828571 14.7594 29.0971429 14.7594 24.7771429 2.8356 24.4489796 2.8356 24.4489796 12.3386 26.2481633 12.3386 26.2481633 14.7594 20.4342857 14.7594"></polygon>
                <path d="M49.2816327,0.1921 C51.6620408,0.1921 53.5330612,0.9061 54.8979592,2.3375 C56.2644898,3.7672 56.9453061,5.5114 56.9453061,7.565 C56.9453061,9.6288 56.2628571,11.3747 54.8914286,12.801 C53.524898,14.229 51.6538776,14.9413 49.28,14.9413 C46.8146939,14.9413 44.9208163,14.2086 43.6,12.7381 C42.2759184,11.2727 41.6163265,9.5489 41.6163265,7.565 C41.6163265,5.5182 42.2955102,3.7774 43.6538776,2.3409 C45.0138776,0.9095 46.8897959,0.1921 49.2816327,0.1921 Z M49.2767347,2.8152 C48.2187755,2.8152 47.3191837,3.23 46.5844898,4.0545 C45.8465306,4.879 45.4759184,6.0894 45.4759184,7.6857 C45.4759184,9.095 45.8416327,10.2221 46.5665306,11.0721 C47.2930612,11.9136 48.197551,12.3386 49.275102,12.3386 C50.3330612,12.3386 51.2326531,11.9204 51.9738776,11.0959 C52.715102,10.2663 53.0857143,9.0729 53.0857143,7.5106 C53.0857143,6.1183 52.7314286,4.9827 52.0244898,4.1191 C51.3191837,3.2504 50.4032653,2.8152 49.2767347,2.8152 Z" id="Shape"></path>
                <polygon id="Shape" points="58.0963265 14.7594 58.0963265 12.3386 59.9477551 12.3386 59.9477551 2.8356 58.0963265 2.8356 58.0963265 0.4148 63.92 0.4148 68.9518367 9.3449 68.9518367 2.8356 67.1542857 2.8356 67.1542857 0.4148 73.3567347 0.4148 73.3567347 2.8356 71.4187755 2.8356 71.4187755 14.8699 68.3379592 14.8699 62.4146939 4.2313 62.4146939 12.3403 64.1436735 12.3403 64.1436735 14.7611 58.0963265 14.7611"></polygon>
                <polygon id="Shape" points="78.5159184 7.1179 82.6710204 2.7982 86.8146939 7.1179 82.6710204 11.4359"></polygon>
                <path d="M92.3493878,14.7594 L92.3493878,12.3386 L94.1959184,12.3386 L94.1959184,2.8356 L92.3493878,2.8356 L92.3493878,0.4148 L99.5167347,0.4148 L99.5167347,2.8356 L97.7893878,2.8356 L97.7893878,12.3386 L99.3942857,12.3386 L99.3942857,14.7594 L92.3493878,14.7594 L92.3493878,14.7594 Z M100.450612,14.7594 L100.450612,12.3386 L102.075102,12.3386 L97.8955102,7.2267 L102.390204,2.8356 L100.749388,2.8356 L100.749388,0.4148 L107.482449,0.4148 L107.482449,2.8356 L105.795918,2.8356 L101.902041,6.8 L106.43102,12.3386 L107.851429,12.3386 L107.851429,14.7594 L100.450612,14.7594 Z" id="Shape"></path>
                <path d="M109.301224,2.8339 L109.301224,0.4131 L115.890612,0.4131 L115.890612,2.8339 L114.53551,2.8339 L114.53551,9.3296 C114.53551,10.1983 114.569796,10.8222 114.638367,11.2064 C114.706939,11.5872 114.893061,11.8983 115.188571,12.1482 C115.484082,12.3981 115.862857,12.5205 116.318367,12.5205 C116.785306,12.5205 117.173878,12.4049 117.484082,12.1686 C117.792653,11.9323 117.995102,11.6399 118.083265,11.2914 C118.174694,10.9378 118.217143,10.2238 118.217143,9.1426 L118.217143,2.8339 L116.876735,2.8339 L116.876735,0.4131 L122.377143,0.4131 L122.377143,2.8339 L120.685714,2.8339 L120.685714,10.0181 C120.685714,10.9973 120.635102,11.7062 120.53551,12.1516 C120.435918,12.5919 120.207347,13.0339 119.849796,13.4708 C119.493878,13.9094 118.976327,14.2647 118.298776,14.535 C117.621224,14.8036 116.842449,14.9396 115.964082,14.9396 C114.946939,14.9396 114.078367,14.79 113.363265,14.4908 C112.646531,14.1933 112.11102,13.7955 111.761633,13.3008 C111.412245,12.8027 111.185306,12.3131 111.087347,11.8252 C110.986122,11.3339 110.937143,10.5026 110.937143,9.3245 L110.937143,2.8322 L109.301224,2.8322 L109.301224,2.8339 Z" id="Shape"></path>
                <path d="M134.630204,0.4131 L136.955102,0.4131 L136.955102,5.4757 L134.630204,5.4757 C133.96898,3.6669 132.826122,2.7625 131.195102,2.7625 C129.848163,2.7625 128.829388,3.2368 128.140408,4.1939 C127.451429,5.1476 127.105306,6.2917 127.105306,7.6228 C127.105306,9.0185 127.469388,10.1456 128.199184,11.0092 C128.92898,11.8677 129.857959,12.3029 130.987755,12.3029 C131.911837,12.3029 132.721633,11.9782 133.413878,11.3237 C134.106122,10.6777 134.574694,9.7733 134.819592,8.6139 L137.536327,9.9637 C136.506122,13.2838 134.236735,14.943 130.733061,14.943 C128.256327,14.943 126.391837,14.2511 125.133061,12.8622 C123.874286,11.4699 123.245714,9.7121 123.245714,7.5888 C123.245714,6.0758 123.572245,4.7532 124.228571,3.6193 C124.881633,2.4854 125.76,1.6252 126.863673,1.0523 C127.970612,0.4794 129.180408,0.1921 130.502857,0.1921 C132.145306,0.1921 133.521633,0.6375 134.630204,1.5317 L134.630204,0.4131 L134.630204,0.4131 Z" id="Shape"></path>
                <polygon id="Shape" points="139.147755 14.7594 139.147755 12.3386 140.878367 12.3386 140.878367 2.8356 139.147755 2.8356 139.147755 0.4148 145.80898 0.4148 145.80898 2.8356 144.362449 2.8356 144.362449 5.9908 148.117551 5.9908 148.117551 2.8356 146.726531 2.8356 146.726531 0.4148 153.332245 0.4148 153.332245 2.8356 151.604898 2.8356 151.604898 12.3386 153.332245 12.3386 153.332245 14.7594 146.726531 14.7594 146.726531 12.3386 148.117551 12.3386 148.117551 8.4303 144.362449 8.4303 144.362449 12.3386 145.80898 12.3386 145.80898 14.7594 139.147755 14.7594"></polygon>
                <polygon id="Shape" points="155.123265 14.7594 155.123265 12.3386 156.778776 12.3386 156.778776 2.8356 155.123265 2.8356 155.123265 0.4148 167.278367 0.4148 167.278367 4.9623 164.638367 4.9623 164.638367 2.8373 160.372245 2.8373 160.372245 6.1591 163.80898 6.1591 163.80898 8.5799 160.372245 8.5799 160.372245 12.342 164.638367 12.342 164.638367 10.1949 167.278367 10.1949 167.278367 14.7628 155.123265 14.7628"></polygon>
                <path d="M183.467755,12.3386 L183.467755,14.7594 L179.265306,14.7594 L176.137143,8.4847 L174.579592,8.4847 L174.579592,12.3403 L176.310204,12.3403 L176.310204,14.7611 L169.103673,14.7611 L169.103673,12.3403 L170.987755,12.3403 L170.987755,2.8373 L169.103673,2.8373 L169.103673,0.4165 L177.410612,0.4165 C178.973061,0.4165 180.101224,0.8279 180.790204,1.6473 C181.479184,2.4735 181.826939,3.4034 181.826939,4.4421 C181.826939,6.0741 181.033469,7.2641 179.444898,8.0155 L181.683265,12.3437 L183.467755,12.3437 L183.467755,12.3386 Z M174.579592,6.1931 L175.807347,6.1931 C177.314286,6.1931 178.073469,5.6287 178.073469,4.4982 C178.073469,3.9389 177.902041,3.5241 177.554286,3.247 C177.209796,2.9716 176.737959,2.8356 176.132245,2.8356 L174.581224,2.8356 L174.581224,6.1931 L174.579592,6.1931 Z" id="Shape"></path>
                <path d="M202.377143,12.4644 L202.377143,14.7594 L198.280816,14.7594 L197.026939,13.1767 C195.709388,14.4058 194.228571,15.0144 192.577959,15.0144 C191.077551,15.0144 189.880816,14.5792 188.995918,13.7071 C188.102857,12.8299 187.660408,11.7997 187.660408,10.6131 C187.660408,9.6951 187.94449,8.8723 188.509388,8.1345 C189.075918,7.3984 190.063673,6.681 191.47102,5.9755 C190.754286,5.1119 190.391837,4.2449 190.391837,3.3677 C190.391837,2.3494 190.757551,1.5657 191.487347,1.0149 C192.21551,0.4675 193.102041,0.1921 194.143673,0.1921 C195.2,0.1921 196.081633,0.4675 196.777143,1.0149 C197.477551,1.5657 197.825306,2.2678 197.825306,3.1229 C197.825306,4.4472 197.028571,5.5335 195.430204,6.3818 L197.394286,8.9675 C198.133878,7.9271 198.705306,6.9326 199.103673,5.9891 L202.377143,5.9891 L202.377143,8.2841 L200.682449,8.2841 C200.181224,9.3738 199.62449,10.2748 199.017143,10.9922 L200.145306,12.4644 L202.377143,12.4644 L202.377143,12.4644 Z M192.866939,7.7418 C191.500408,8.3317 190.814694,9.1375 190.814694,10.1524 C190.814694,10.7236 191.035102,11.2285 191.467755,11.6654 C191.897143,12.1006 192.452245,12.3199 193.134694,12.3199 C193.923265,12.3199 194.710204,11.9408 195.484082,11.1894 L192.866939,7.7418 Z M194.053878,4.5764 C194.93551,4.1633 195.379592,3.6856 195.379592,3.1433 C195.379592,2.8577 195.268571,2.6146 195.048163,2.4089 C194.82449,2.2015 194.556735,2.1012 194.253061,2.1012 C193.952653,2.1012 193.694694,2.1862 193.472653,2.363 C193.252245,2.5398 193.141224,2.7523 193.141224,3.0073 C193.141224,3.2691 193.443265,3.791 194.053878,4.5764 Z" id="Shape"></path>
                <path d="M214.891429,12.3386 L214.891429,14.7594 L207.616327,14.7594 L207.616327,12.3386 L209.374694,12.3386 L209.374694,2.8356 L207.616327,2.8356 L207.616327,0.4148 L214.875102,0.4148 C216.566531,0.4148 217.872653,0.8262 218.791837,1.6507 C219.715918,2.4769 220.176327,3.5887 220.176327,4.9827 C220.176327,5.78 220.013061,6.5042 219.691429,7.1519 C219.369796,7.8064 218.955102,8.2994 218.450612,8.6479 C217.947755,8.9964 217.369796,9.2327 216.718367,9.3585 C216.068571,9.4877 215.25551,9.5506 214.285714,9.5506 L212.968163,9.5506 L212.968163,12.3403 L214.891429,12.3403 L214.891429,12.3386 Z M212.969796,7.1434 L213.498776,7.1434 C214.723265,7.1434 215.508571,6.9394 215.857959,6.5246 C216.212245,6.1098 216.386939,5.5913 216.386939,4.9742 C216.386939,4.454 216.266122,4.0086 216.022857,3.6431 C215.777959,3.2742 215.502041,3.0481 215.182041,2.9614 C214.866939,2.8781 214.354286,2.8356 213.637551,2.8356 L212.968163,2.8356 L212.968163,7.1434 L212.969796,7.1434 Z" id="Shape"></path>
                <path d="M233.684898,12.3386 L233.684898,14.7594 L226.919184,14.7594 L226.919184,12.3386 L228.672653,12.3386 L228.021224,9.8804 L224.444082,9.8804 L223.712653,12.3386 L225.560816,12.3386 L225.560816,14.7594 L219.448163,14.7594 L219.448163,12.3386 L221.157551,12.3386 L223.844898,2.8356 L222.003265,2.8356 L222.003265,0.4148 L231.00898,0.4148 L231.00898,2.8356 L229.154286,2.8356 L232.04898,12.3386 L233.684898,12.3386 L233.684898,12.3386 Z M227.456327,7.7673 L226.310204,3.4425 L225.067755,7.7673 L227.456327,7.7673 Z" id="Shape"></path>
                <path d="M249.748571,12.3386 L249.748571,14.7594 L245.552653,14.7594 L242.42449,8.4847 L240.868571,8.4847 L240.868571,12.3403 L242.594286,12.3403 L242.594286,14.7611 L235.39102,14.7611 L235.39102,12.3403 L237.271837,12.3403 L237.271837,2.8373 L235.39102,2.8373 L235.39102,0.4165 L243.697959,0.4165 C245.258776,0.4165 246.385306,0.8279 247.074286,1.6473 C247.768163,2.4735 248.112653,3.4034 248.112653,4.4421 C248.112653,6.0741 247.315918,7.2641 245.72898,8.0155 L247.96898,12.3437 L249.748571,12.3437 L249.748571,12.3386 Z M240.866939,6.1931 L242.089796,6.1931 C243.6,6.1931 244.355918,5.6287 244.355918,4.4982 C244.355918,3.9389 244.18449,3.5241 243.836735,3.247 C243.49551,2.9716 243.020408,2.8356 242.414694,2.8356 L240.868571,2.8356 L240.868571,6.1931 L240.866939,6.1931 Z" id="Shape"></path>
                <polygon id="Shape" points="251.92 14.7594 251.92 12.3386 254 12.3386 254 2.8356 251.92 2.8356 251.92 6.1727 249.557551 6.1727 249.557551 0.4131 262.068571 0.4131 262.068571 6.1727 259.724082 6.1727 259.724082 2.8356 257.595102 2.8356 257.595102 12.3386 259.670204 12.3386 259.670204 14.7594 251.92 14.7594"></polygon>
                <polygon id="Shape" points="263.719184 14.7594 263.719184 12.3386 265.570612 12.3386 265.570612 2.8356 263.719184 2.8356 263.719184 0.4148 269.539592 0.4148 274.574694 9.3449 274.574694 2.8356 272.772245 2.8356 272.772245 0.4148 278.973061 0.4148 278.973061 2.8356 277.036735 2.8356 277.036735 14.8699 273.955918 14.8699 268.032653 4.2313 268.032653 12.3403 269.758367 12.3403 269.758367 14.7611 263.719184 14.7611"></polygon>
                <polygon id="Shape" points="280.646531 14.7594 280.646531 12.3386 282.302041 12.3386 282.302041 2.8356 280.646531 2.8356 280.646531 0.4148 292.8 0.4148 292.8 4.9623 290.16 4.9623 290.16 2.8373 285.892245 2.8373 285.892245 6.1591 289.332245 6.1591 289.332245 8.5799 285.892245 8.5799 285.892245 12.342 290.16 12.342 290.16 10.1949 292.8 10.1949 292.8 14.7628 280.646531 14.7628"></polygon>
                <path d="M308.925714,12.3386 L308.925714,14.7594 L304.728163,14.7594 L301.603265,8.4847 L300.040816,8.4847 L300.040816,12.3403 L301.773061,12.3403 L301.773061,14.7611 L294.571429,14.7611 L294.571429,12.3403 L296.453878,12.3403 L296.453878,2.8373 L294.571429,2.8373 L294.571429,0.4165 L302.871837,0.4165 C304.439184,0.4165 305.565714,0.8279 306.249796,1.6473 C306.945306,2.4735 307.289796,3.4034 307.289796,4.4421 C307.289796,6.0741 306.496327,7.2641 304.907755,8.0155 L307.149388,12.3437 L308.925714,12.3437 L308.925714,12.3386 Z M300.039184,6.1931 L301.266939,6.1931 C302.777143,6.1931 303.534694,5.6287 303.534694,4.4982 C303.534694,3.9389 303.36,3.5241 303.01551,3.247 C302.669388,2.9716 302.199184,2.8356 301.593469,2.8356 L300.040816,2.8356 L300.040816,6.1931 L300.039184,6.1931 Z" id="Shape"></path>
                <path d="M310.586122,14.7594 L310.586122,9.86 L312.92898,9.86 C312.958367,10.7593 313.178776,11.4223 313.6,11.8473 C314.021224,12.2723 314.502857,12.4848 315.041633,12.4848 C315.46449,12.4848 315.813878,12.3318 316.106122,12.0241 C316.396735,11.7215 316.543673,11.3594 316.543673,10.9497 C316.543673,10.5111 316.396735,10.1388 316.112653,9.8413 C315.831837,9.5404 315.314286,9.2021 314.56,8.823 C312.966531,8.0274 311.887347,7.3202 311.317551,6.7082 C310.746122,6.0945 310.463673,5.2666 310.463673,4.2211 C310.463673,2.9648 310.839184,1.9907 311.591837,1.2988 C312.342857,0.6103 313.198367,0.2669 314.155102,0.2669 C315.250612,0.2669 316.099592,0.7157 316.700408,1.6116 L316.700408,0.4148 L319.025306,0.4148 L319.025306,4.7651 L316.700408,4.7651 C316.626939,4.0953 316.406531,3.5819 316.03102,3.2147 C315.662041,2.8526 315.229388,2.669 314.736327,2.669 C314.354286,2.669 314.027755,2.7761 313.763265,2.9886 C313.502041,3.2011 313.368163,3.4816 313.368163,3.8267 C313.368163,4.1225 313.475918,4.3996 313.696327,4.6682 C313.913469,4.93 314.553469,5.3074 315.604898,5.7885 C316.623673,6.2594 317.405714,6.6878 317.95102,7.0686 C318.489796,7.4511 318.924082,7.9458 319.239184,8.5544 C319.554286,9.1613 319.714286,9.8668 319.714286,10.6709 C319.714286,12.087 319.319184,13.1546 318.524082,13.872 C317.737143,14.5843 316.798367,14.943 315.717551,14.943 C314.512653,14.943 313.580408,14.4789 312.92898,13.5405 L312.92898,14.7611 L310.586122,14.7611 L310.586122,14.7594 Z" id="Shape"></path>
                <path d="M0.532244898,14.7594 L0.532244898,9.86 L2.87510204,9.86 C2.90285714,10.7593 3.12653061,11.4223 3.5477551,11.8473 C3.96897959,12.2723 4.44897959,12.4848 4.98938776,12.4848 C5.41061224,12.4848 5.76489796,12.3318 6.05387755,12.0241 C6.34285714,11.7215 6.48816327,11.3594 6.48816327,10.9497 C6.48816327,10.5111 6.3477551,10.1388 6.06530612,9.8413 C5.78122449,9.5404 5.26204082,9.2021 4.50938776,8.823 C2.91591837,8.0274 1.83346939,7.3202 1.26367347,6.7082 C0.697142857,6.0945 0.411428571,5.2666 0.411428571,4.2211 C0.411428571,2.9648 0.786938776,1.9907 1.53959184,1.2988 C2.2922449,0.6103 3.1477551,0.2669 4.1044898,0.2669 C5.19836735,0.2669 6.04734694,0.7157 6.64816327,1.6116 L6.64816327,0.4148 L8.97469388,0.4148 L8.97469388,4.7651 L6.64489796,4.7651 C6.57142857,4.0953 6.35102041,3.5819 5.97877551,3.2147 C5.60653061,2.8526 5.1722449,2.669 4.68081633,2.669 C4.29714286,2.669 3.97387755,2.7761 3.71102041,2.9886 C3.44816327,3.2011 3.31591837,3.4816 3.31591837,3.8267 C3.31591837,4.1225 3.42367347,4.3996 3.64244898,4.6682 C3.85795918,4.93 4.49632653,5.3074 5.55265306,5.7885 C6.56979592,6.2594 7.35020408,6.6878 7.89387755,7.0686 C8.43918367,7.4511 8.86857143,7.9458 9.18530612,8.5544 C9.50204082,9.1613 9.66204082,9.8668 9.66204082,10.6709 C9.66204082,12.087 9.26530612,13.1546 8.47510204,13.872 C7.68326531,14.5843 6.7477551,14.943 5.66530612,14.943 C4.46040816,14.943 3.52979592,14.4789 2.87673469,13.5405 L2.87673469,14.7611 L0.532244898,14.7611 L0.532244898,14.7594 Z" id="Shape"></path>
            </g>
        </g>
    </g>
</svg>