<?xml version="1.0"?>
<svg xmlns="http://www.w3.org/2000/svg" xmlns:xlink="http://www.w3.org/1999/xlink" xmlns:svgjs="http://svgjs.com/svgjs" version="1.1" width="512" height="512" x="0" y="0" viewBox="0 0 510.442 510.442" style="enable-background:new 0 0 512 512" xml:space="preserve" class=""><g><script/><g xmlns="http://www.w3.org/2000/svg"><ellipse cx="117.45" cy="41.722" rx="41.723" ry="41.722" transform="matrix(.924 -.383 .383 .924 -7.026 48.122)" fill="#ffffff" data-original="#000000" style="" class=""/><path d="m219.95 206.207v-62.062c-.132-26.137-21.872-47.401-48.462-47.401-36.523 0-77.083 0-108.075 0-26.547 0-48.251 21.264-48.384 47.502v147.897c0 11.118 9.013 20.131 20.131 20.131s20.131-9.013 20.131-20.131v-147.796c.019-3.842 4.338-7.341 8.569-7.341v349.279c0 13.342 10.874 24.157 24.217 24.157s24.158-10.815 24.158-24.157v-196.618h10.43v196.618c0 13.342 10.815 24.157 24.158 24.157s24.266-10.815 24.266-24.157v-349.279c4.272 0 8.578 3.499 8.598 7.24v67.545c0 3.654.995 7.239 2.877 10.371l22.701 37.768c.385-7.807 3.455-15.518 9.265-21.626l15.145-15.918z" fill="#ffffff" data-original="#000000" style="" class=""/><circle cx="366.895" cy="54.901" r="41.143" fill="#ffffff" data-original="#000000" style="" class=""/><path d="m494.201 280.659c-.326-.891-32.741-89.574-47.014-131.112-7.893-22.962-21.829-40.389-45.901-40.389-7.824 0-60.484 0-68.781 0-21.248 0-36.69 13.589-45.9 40.391-4.826 14.043-14.993 42.51-18.726 52.94l-43.233 45.441c-7.557 7.943-7.244 20.508.699 28.065 7.944 7.558 20.509 7.243 28.066-.699l46.125-48.481c1.905-2.002 3.37-4.38 4.304-6.982.256-.713 3.065-2.292 6.642-12.33-2.681 15.698-19.972 110.67-22.651 126.355-1.176 6.785 4.054 12.924 10.866 12.924h15.414v139.503c0 13.156 10.665 23.822 23.821 23.822s23.821-10.666 23.821-23.822v-139.503h10.286v139.503c0 13.156 10.665 23.822 23.821 23.822s23.821-10.666 23.821-23.822v-139.503h15.414c6.801 0 12.038-6.163 10.866-12.924l-21.485-126.355c14.689 41.085 32.202 86.155 32.434 86.79 3.778 10.329 15.197 15.582 25.461 11.827 10.299-3.765 15.594-15.164 11.83-25.461z" fill="#ffffff" data-original="#000000" style="" class=""/></g></g></svg>
