<svg width="122" height="123" viewBox="0 0 122 123" fill="none" xmlns="http://www.w3.org/2000/svg">
<rect width="121.723" height="121.723" transform="translate(0 0.666016)" fill="white" fill-opacity="0.01"/>
<path d="M25.3584 36.1709V86.8887H96.3633V36.1709H25.3584ZM96.3633 26.0273C101.942 26.0273 106.507 30.5919 106.507 36.1709V86.8887C106.507 92.4677 101.942 97.0323 96.3633 97.0323H25.3584C19.7794 97.0323 15.2148 92.4677 15.2148 86.8887V36.1709C15.2148 30.5919 19.7794 26.0273 25.3584 26.0273H96.3633Z" fill="#C41F3E"/>
<path fill-rule="evenodd" clip-rule="evenodd" d="M27.8842 33.635H15.8437C16.5994 35.8666 17.8674 37.9663 19.6476 39.7465L49.4798 69.5737C50.9479 71.0431 52.6913 72.2088 54.6102 73.0041C56.5291 73.7994 58.5859 74.2087 60.6631 74.2087C62.7403 74.2087 64.7971 73.7994 66.716 73.0041C68.6349 72.2088 70.3782 71.0431 71.8464 69.5737L101.679 39.7465C103.454 37.9663 104.722 35.8666 105.477 33.635H93.442L64.6749 62.4022C64.1478 62.9295 63.522 63.3479 62.8332 63.6333C62.1444 63.9188 61.4061 64.0657 60.6605 64.0657C59.915 64.0657 59.1767 63.9188 58.4879 63.6333C57.7991 63.3479 57.1733 62.9295 56.6462 62.4022L27.8842 33.635Z" fill="#C41F3E"/>
</svg>
