<svg width="32" height="32" viewBox="0 0 32 32" fill="none" xmlns="http://www.w3.org/2000/svg">
<g id="Outlined/global-money-transfer-1 ">
<path id="Combined Shape" fill-rule="evenodd" clip-rule="evenodd" d="M16.1591 27.898C16.3109 27.7388 16.4991 27.5327 16.7157 27.2821C17.3588 26.5381 18.0029 25.6819 18.6038 24.7275C19.0278 24.054 19.4096 23.3663 19.7439 22.666H12.3563C12.7084 23.3612 13.1101 24.044 13.556 24.7129C14.1923 25.6673 14.8744 26.5237 15.5556 27.268C15.7916 27.5259 15.9959 27.7368 16.1591 27.898ZM16.2743 29.33C16.184 29.3318 16.0936 29.3327 16.0029 29.3327L15.9976 29.3327C8.63553 29.3307 2.66797 23.3619 2.66797 15.9994C2.66797 8.63649 8.63598 2.66754 15.9985 2.66602L16.0038 2.66602C16.0941 2.66603 16.1843 2.66695 16.2742 2.66875C16.3259 2.66407 16.3781 2.66539 16.4297 2.67277C23.5952 2.89892 29.3346 8.77888 29.3346 15.9994C29.3346 23.2198 23.5952 29.0998 16.4296 29.3259C16.3781 29.3333 16.3259 29.3346 16.2743 29.33ZM17.9953 4.16426C18.5891 4.87881 19.1777 5.68027 19.7321 6.56081C20.2983 7.4601 20.7949 8.38505 21.2108 9.33268H25.9806C24.1794 6.64182 21.3187 4.72008 17.9953 4.16426ZM20.3162 10.666H11.7491C11.1382 12.1758 10.7665 13.7366 10.685 15.3327H21.3186C21.2418 13.7361 20.8917 12.1754 20.3162 10.666ZM19.7439 9.33268H12.3563C12.7084 8.63753 13.1101 7.9547 13.556 7.28582C14.1923 6.3314 14.8744 5.47498 15.5556 4.73071C15.7916 4.47284 15.9959 4.26194 16.1591 4.1007C16.3109 4.25991 16.4991 4.46602 16.7157 4.71657C17.3588 5.46055 18.0029 6.31679 18.6038 7.27123C19.0278 7.94469 19.4096 8.63239 19.7439 9.33268ZM22.6534 15.3327C22.5835 13.7328 22.264 12.1736 21.7366 10.666H26.3346C26.4692 10.666 26.5945 10.6261 26.6993 10.5575C27.4368 12.0044 27.8894 13.6208 27.9831 15.3327H22.6534ZM21.3186 16.666H10.685C10.7665 18.2621 11.1382 19.8229 11.7491 21.3327H20.3162C20.8917 19.8233 21.2418 18.2626 21.3186 16.666ZM21.7366 21.3327C22.264 19.8251 22.5835 18.2659 22.6534 16.666H27.9831C27.8894 18.3779 27.4368 19.9943 26.6993 21.4412C26.5945 21.3726 26.4692 21.3327 26.3346 21.3327H21.7366ZM21.2109 22.666C20.7949 23.6137 20.2983 24.5386 19.7321 25.4379C19.1777 26.3184 18.5891 27.1199 17.9953 27.8344C21.3187 27.2786 24.1794 25.3569 25.9806 22.666H21.2109ZM6.02203 9.33268C7.87849 6.55928 10.8604 4.60291 14.3144 4.11699C13.676 4.83961 13.0427 5.65207 12.4466 6.54622C11.8441 7.44999 11.3159 8.37979 10.874 9.33268H6.02203ZM5.66797 10.666H10.3185C9.7613 12.1732 9.42383 13.7324 9.35001 15.3327H4.01951C4.11325 13.6208 4.56581 12.0044 5.30327 10.5575C5.40807 10.6261 5.53336 10.666 5.66797 10.666ZM4.01951 16.666H9.35001C9.42382 18.2663 9.76129 19.8255 10.3185 21.3327H5.66797C5.53336 21.3327 5.40807 21.3726 5.30327 21.4412C4.56581 19.9943 4.11325 18.3779 4.01951 16.666ZM6.02203 22.666H10.874C11.3159 23.6189 11.8441 24.5487 12.4466 25.4525C13.0427 26.3466 13.676 27.1591 14.3144 27.8817C10.8604 27.3958 7.87849 25.4394 6.02203 22.666Z" fill="#C41F3E"/>
<mask id="mask0_4536_53559" style="mask-type:alpha" maskUnits="userSpaceOnUse" x="2" y="2" width="28" height="28">
<path id="Combined Shape_2" fill-rule="evenodd" clip-rule="evenodd" d="M16.1591 27.898C16.3109 27.7388 16.4991 27.5327 16.7157 27.2821C17.3588 26.5381 18.0029 25.6819 18.6038 24.7275C19.0278 24.054 19.4096 23.3663 19.7439 22.666H12.3563C12.7084 23.3612 13.1101 24.044 13.556 24.7129C14.1923 25.6673 14.8744 26.5237 15.5556 27.268C15.7916 27.5259 15.9959 27.7368 16.1591 27.898ZM16.2743 29.33C16.184 29.3318 16.0936 29.3327 16.0029 29.3327L15.9976 29.3327C8.63553 29.3307 2.66797 23.3619 2.66797 15.9994C2.66797 8.63649 8.63598 2.66754 15.9985 2.66602L16.0038 2.66602C16.0941 2.66603 16.1843 2.66695 16.2742 2.66875C16.3259 2.66407 16.3781 2.66539 16.4297 2.67277C23.5952 2.89892 29.3346 8.77888 29.3346 15.9994C29.3346 23.2198 23.5952 29.0998 16.4296 29.3259C16.3781 29.3333 16.3259 29.3346 16.2743 29.33ZM17.9953 4.16426C18.5891 4.87881 19.1777 5.68027 19.7321 6.56081C20.2983 7.4601 20.7949 8.38505 21.2108 9.33268H25.9806C24.1794 6.64182 21.3187 4.72008 17.9953 4.16426ZM20.3162 10.666H11.7491C11.1382 12.1758 10.7665 13.7366 10.685 15.3327H21.3186C21.2418 13.7361 20.8917 12.1754 20.3162 10.666ZM19.7439 9.33268H12.3563C12.7084 8.63753 13.1101 7.9547 13.556 7.28582C14.1923 6.3314 14.8744 5.47498 15.5556 4.73071C15.7916 4.47284 15.9959 4.26194 16.1591 4.1007C16.3109 4.25991 16.4991 4.46602 16.7157 4.71657C17.3588 5.46055 18.0029 6.31679 18.6038 7.27123C19.0278 7.94469 19.4096 8.63239 19.7439 9.33268ZM22.6534 15.3327C22.5835 13.7328 22.264 12.1736 21.7366 10.666H26.3346C26.4692 10.666 26.5945 10.6261 26.6993 10.5575C27.4368 12.0044 27.8894 13.6208 27.9831 15.3327H22.6534ZM21.3186 16.666H10.685C10.7665 18.2621 11.1382 19.8229 11.7491 21.3327H20.3162C20.8917 19.8233 21.2418 18.2626 21.3186 16.666ZM21.7366 21.3327C22.264 19.8251 22.5835 18.2659 22.6534 16.666H27.9831C27.8894 18.3779 27.4368 19.9943 26.6993 21.4412C26.5945 21.3726 26.4692 21.3327 26.3346 21.3327H21.7366ZM21.2109 22.666C20.7949 23.6137 20.2983 24.5386 19.7321 25.4379C19.1777 26.3184 18.5891 27.1199 17.9953 27.8344C21.3187 27.2786 24.1794 25.3569 25.9806 22.666H21.2109ZM6.02203 9.33268C7.87849 6.55928 10.8604 4.60291 14.3144 4.11699C13.676 4.83961 13.0427 5.65207 12.4466 6.54622C11.8441 7.44999 11.3159 8.37979 10.874 9.33268H6.02203ZM5.66797 10.666H10.3185C9.7613 12.1732 9.42383 13.7324 9.35001 15.3327H4.01951C4.11325 13.6208 4.56581 12.0044 5.30327 10.5575C5.40807 10.6261 5.53336 10.666 5.66797 10.666ZM4.01951 16.666H9.35001C9.42382 18.2663 9.76129 19.8255 10.3185 21.3327H5.66797C5.53336 21.3327 5.40807 21.3726 5.30327 21.4412C4.56581 19.9943 4.11325 18.3779 4.01951 16.666ZM6.02203 22.666H10.874C11.3159 23.6189 11.8441 24.5487 12.4466 25.4525C13.0427 26.3466 13.676 27.1591 14.3144 27.8817C10.8604 27.3958 7.87849 25.4394 6.02203 22.666Z" fill="white"/>
</mask>
<g mask="url(#mask0_4536_53559)">
</g>
</g>
</svg>
