<svg width="122" height="123" viewBox="0 0 122 123" fill="none" xmlns="http://www.w3.org/2000/svg">
<path d="M35.5054 51.377C34.5023 51.377 33.5217 51.6744 32.6877 52.2317C31.8536 52.789 31.2035 53.5811 30.8197 54.5079C30.4358 55.4346 30.3354 56.4544 30.5311 57.4382C30.7268 58.422 31.2098 59.3258 31.9191 60.0351C32.6284 60.7444 33.5321 61.2274 34.5159 61.4231C35.4998 61.6188 36.5195 61.5184 37.4463 61.1345C38.373 60.7506 39.1651 60.1005 39.7224 59.2665C40.2797 58.4324 40.5772 57.4519 40.5772 56.4488C40.5772 55.1036 40.0428 53.8136 39.0917 52.8625C38.1405 51.9113 36.8505 51.377 35.5054 51.377ZM96.3668 31.0899H91.295V15.8745C91.295 14.5294 90.7606 13.2394 89.8095 12.2882C88.8584 11.3371 87.5683 10.8027 86.2232 10.8027H35.5054C34.1603 10.8027 32.8702 11.3371 31.9191 12.2882C30.968 13.2394 30.4336 14.5294 30.4336 15.8745V31.0899H25.3618C21.3265 31.0899 17.4564 32.6929 14.603 35.5463C11.7495 38.3998 10.1465 42.2698 10.1465 46.3052V76.7359C10.1465 80.7712 11.7495 84.6413 14.603 87.4948C17.4564 90.3482 21.3265 91.9512 25.3618 91.9512H30.4336V107.167C30.4336 108.512 30.968 109.802 31.9191 110.753C32.8702 111.704 34.1603 112.238 35.5054 112.238H86.2232C87.5683 112.238 88.8584 111.704 89.8095 110.753C90.7606 109.802 91.295 108.512 91.295 107.167V91.9512H96.3668C100.402 91.9512 104.272 90.3482 107.126 87.4948C109.979 84.6413 111.582 80.7712 111.582 76.7359V46.3052C111.582 42.2698 109.979 38.3998 107.126 35.5463C104.272 32.6929 100.402 31.0899 96.3668 31.0899ZM40.5772 20.9463H81.1514V31.0899H40.5772V20.9463ZM81.1514 102.095H40.5772V81.8077H81.1514V102.095ZM101.439 76.7359C101.439 78.081 100.904 79.371 99.9531 80.3222C99.0019 81.2733 97.7119 81.8077 96.3668 81.8077H91.295V76.7359C91.295 75.3908 90.7606 74.1007 89.8095 73.1496C88.8584 72.1985 87.5683 71.6641 86.2232 71.6641H35.5054C34.1603 71.6641 32.8702 72.1985 31.9191 73.1496C30.968 74.1007 30.4336 75.3908 30.4336 76.7359V81.8077H25.3618C24.0167 81.8077 22.7267 81.2733 21.7755 80.3222C20.8244 79.371 20.29 78.081 20.29 76.7359V46.3052C20.29 44.9601 20.8244 43.6701 21.7755 42.7189C22.7267 41.7678 24.0167 41.2334 25.3618 41.2334H96.3668C97.7119 41.2334 99.0019 41.7678 99.9531 42.7189C100.904 43.6701 101.439 44.9601 101.439 46.3052V76.7359Z" fill="#9B9595"/>
</svg>
